<svg width="511" height="696" viewBox="0 0 511 696" fill="none" xmlns="http://www.w3.org/2000/svg">
<path opacity="0.06" d="M0 685.41C30.9193 692.468 62.92 696 96 696C170.774 696 240.008 677.978 303.753 641.935C367.498 605.891 419.794 557.192 457.004 495.351C494.239 433.511 511 366.148 511 293.726L511 0L475.434 0L475.434 293.726C475.434 343.003 465.392 390.272 445.307 435.533C425.223 480.793 398.207 519.746 364.285 552.443C330.364 585.14 289.942 611.194 242.993 630.632C196.07 650.07 147.072 659.802 96 659.802C63.1375 659.802 31.1442 655.773 0 647.721V685.41ZM0 610.397C31.0024 619.198 62.9969 623.604 95.9747 623.604C142.392 623.604 186.887 614.902 229.359 597.446C271.855 580.016 308.407 556.562 339.04 527.058C369.673 497.553 394.134 462.437 412.398 421.707C430.661 380.978 439.818 338.317 439.818 293.726L439.818 0L404.252 0L404.252 293.726C404.252 346.71 390.416 395.73 362.742 440.81C335.069 485.891 297.606 521.6 250.354 547.912C203.102 574.224 151.625 587.38 95.9494 587.38C62.4397 587.38 30.4602 582.614 0 573.082V610.397ZM0 534.546C30.669 545.649 62.6628 551.182 96 551.182C132.881 551.182 168.143 544.385 201.736 530.817C235.328 517.249 264.317 498.892 288.702 475.747C313.087 452.627 332.514 425.209 347.008 393.542C361.503 361.875 368.737 328.586 368.737 293.726L368.737 0L333.172 0L333.172 293.726C333.172 333.632 322.548 370.576 301.299 404.612C280.051 438.648 251.239 466.173 214.839 485.946C178.438 505.719 138.851 514.983 96.0253 514.983C61.9789 514.983 29.979 508.735 0 496.238L0 534.546ZM0 456.797C28.7993 471.439 60.7908 478.759 95.9747 478.759C151.296 478.759 198.396 459.441 237.933 423.243C277.47 387.045 297.556 344.677 297.556 293.726L297.556 0L261.99 0L261.99 293.726C261.99 334.636 247.293 367.425 214.839 396.595C182.41 425.764 141.81 442.054 96.0253 442.054C59.8721 442.054 27.8512 433.284 0 415.233V456.797Z" fill="url(#paint0_linear_7386_401)"/>
<defs>
<linearGradient id="paint0_linear_7386_401" x1="466.26" y1="39.1876" x2="-210.945" y2="-27.4419" gradientUnits="userSpaceOnUse">
<stop stop-color="#21C7E1"/>
<stop offset="0.34375" stop-color="#2585FF"/>
<stop offset="1" stop-color="#002970" stop-opacity="0"/>
</linearGradient>
</defs>
</svg>
