<svg width="296" height="32" viewBox="0 0 296 32" fill="none" xmlns="http://www.w3.org/2000/svg">
<path d="M99.657 9.81201C99.2002 8.50951 98.3502 7.381 97.2244 6.58236C96.0986 5.78371 94.7526 5.35432 93.3723 5.35354H93.3076C92.4095 5.35409 91.5208 5.53681 90.6953 5.89065C89.8698 6.2445 89.1247 6.76211 88.505 7.41218C87.8862 6.76179 87.1417 6.24395 86.3166 5.89007C85.4916 5.53618 84.6032 5.35364 83.7054 5.35354H83.6407C82.0422 5.34902 80.4958 5.92126 79.2852 6.96518V6.45935C79.2688 6.2115 79.1588 5.97915 78.9775 5.80934C78.7963 5.63952 78.5572 5.54491 78.3088 5.54471H73.8651C73.6043 5.54549 73.3545 5.64965 73.1703 5.83433C72.9862 6.01901 72.8828 6.26916 72.8828 6.52994V30.7338C72.8828 30.9946 72.9862 31.2447 73.1703 31.4294C73.3545 31.6141 73.6043 31.7182 73.8651 31.719H78.3206C78.5585 31.7183 78.7881 31.6316 78.967 31.4748C79.1459 31.3181 79.2621 31.1019 79.294 30.8661V13.4941C79.294 13.4352 79.294 13.3764 79.294 13.3176C79.3258 12.9242 79.4997 12.5559 79.7833 12.2814C80.067 12.007 80.4409 11.8453 80.8351 11.8265H81.6556C81.9989 11.8506 82.3269 11.9777 82.5967 12.1912C82.7902 12.3478 82.9452 12.5466 83.0497 12.7725C83.1542 12.9984 83.2055 13.2452 83.1996 13.4941L83.2172 30.7838C83.218 31.0448 83.3221 31.295 83.5067 31.4796C83.6913 31.6642 83.9414 31.7682 84.2024 31.769H88.658C88.911 31.7685 89.154 31.6703 89.3365 31.495C89.5189 31.3197 89.6267 31.0807 89.6373 30.8279V13.4764C89.6318 13.2018 89.6954 12.9302 89.8224 12.6866C89.9493 12.443 90.1355 12.2352 90.3637 12.0824C90.6103 11.9246 90.8923 11.8306 91.1842 11.8089H92.0047C92.4291 11.8303 92.8284 12.0165 93.1173 12.328C93.4063 12.6395 93.5622 13.0516 93.5517 13.4764L93.5693 30.7426C93.5693 30.872 93.5948 31.0001 93.6443 31.1196C93.6938 31.2392 93.7664 31.3478 93.8579 31.4393C93.9494 31.5308 94.058 31.6033 94.1775 31.6528C94.297 31.7023 94.4251 31.7278 94.5545 31.7278H99.0071C99.1365 31.7278 99.2646 31.7023 99.3841 31.6528C99.5037 31.6033 99.6123 31.5308 99.7037 31.4393C99.7952 31.3478 99.8678 31.2392 99.9173 31.1196C99.9668 31.0001 99.9923 30.872 99.9923 30.7426V12.1736C100.033 11.3721 99.9194 10.5704 99.657 9.81201Z" fill="#00BAF2"/>
<path d="M69.4688 5.61197H66.9219V1.49464C66.9223 1.37621 66.8993 1.25889 66.8543 1.14937C66.8092 1.03985 66.743 0.940302 66.6594 0.856425C66.5758 0.772547 66.4765 0.706 66.3671 0.66059C66.2577 0.615181 66.1404 0.591796 66.022 0.591797C65.9647 0.592341 65.9076 0.598239 65.8514 0.609433C63.0252 1.38584 63.5928 5.30024 58.4315 5.63257H57.9315C57.8582 5.63269 57.7851 5.64154 57.7139 5.659C57.4957 5.7077 57.3007 5.82915 57.1606 6.00337C57.0206 6.17759 56.944 6.39424 56.9434 6.61775V11.0733C56.9434 11.3346 57.0472 11.5851 57.2319 11.7699C57.4167 11.9547 57.6673 12.0585 57.9286 12.0585H60.646V30.954C60.6456 31.0821 60.6705 31.2089 60.7192 31.3274C60.768 31.4458 60.8396 31.5535 60.9301 31.6442C61.0205 31.7349 61.1279 31.8069 61.2462 31.856C61.3645 31.9051 61.4914 31.9303 61.6194 31.9303H66.0308C66.2893 31.9295 66.5369 31.8264 66.7194 31.6434C66.9018 31.4603 67.0043 31.2124 67.0043 30.954V12.0585H69.4688C69.7298 12.0577 69.98 11.9536 70.1646 11.769C70.3492 11.5845 70.4532 11.3343 70.454 11.0733V6.61775C70.4563 6.48676 70.4326 6.35662 70.3842 6.23488C70.3357 6.11314 70.2636 6.00223 70.1719 5.90864C70.0802 5.81504 69.9709 5.74062 69.8501 5.68969C69.7294 5.63876 69.5998 5.61234 69.4688 5.61197Z" fill="#00BAF2"/>
<path d="M53.4553 5.61133H48.9997C48.7387 5.6121 48.4885 5.71613 48.3039 5.90073C48.1194 6.08532 48.0153 6.33546 48.0145 6.59651V15.8193C48.0114 16.0931 47.9003 16.3546 47.7053 16.5468C47.5103 16.739 47.2473 16.8465 46.9734 16.8457H45.103C44.8261 16.8457 44.5606 16.7357 44.3648 16.5399C44.169 16.3441 44.059 16.0785 44.059 15.8016L44.0413 6.60239C44.0406 6.34134 43.9365 6.0912 43.7519 5.90661C43.5673 5.72201 43.3172 5.61798 43.0561 5.61721H38.5977C38.3366 5.61798 38.0865 5.72201 37.9019 5.90661C37.7173 6.0912 37.6132 6.34134 37.6125 6.60239V16.7016C37.5776 17.5742 37.7239 18.4446 38.0421 19.2578C38.3603 20.0711 38.8436 20.8097 39.4614 21.4269C40.0792 22.0442 40.8182 22.5267 41.6317 22.8442C42.4453 23.1617 43.3158 23.3072 44.1884 23.2716C44.1884 23.2716 47.0676 23.2716 47.1587 23.2922C47.4085 23.325 47.6379 23.4474 47.804 23.6368C47.9702 23.8262 48.0618 24.0696 48.0618 24.3215C48.0618 24.5735 47.9702 24.8168 47.804 25.0062C47.6379 25.1956 47.4085 25.3181 47.1587 25.3508H47.0823L40.5652 25.3743C40.4358 25.3743 40.3077 25.3999 40.1881 25.4494C40.0686 25.4989 39.96 25.5715 39.8685 25.6629C39.777 25.7544 39.7044 25.863 39.6549 25.9825C39.6054 26.1021 39.5799 26.2302 39.5799 26.3596V30.818C39.5807 31.0788 39.6849 31.3286 39.8695 31.5128C40.0542 31.6969 40.3044 31.8003 40.5652 31.8003H47.8498C48.7223 31.836 49.5927 31.6904 50.4061 31.3729C51.2195 31.0554 51.9583 30.5728 52.5759 29.9555C53.1934 29.3382 53.6764 28.5996 53.9943 27.7863C54.3122 26.9731 54.4581 26.1027 54.4228 25.2303V6.58767C54.4206 6.33094 54.3182 6.08525 54.1374 5.90288C53.9567 5.72051 53.712 5.61592 53.4553 5.61133Z" fill="#002970"/>
<path d="M10.7142 5.61188H0.967906C0.840843 5.61188 0.715027 5.63689 0.597636 5.68552C0.480246 5.73414 0.373582 5.80542 0.283735 5.89526C0.193889 5.98511 0.122614 6.09177 0.0739894 6.20916C0.0253647 6.32655 0.000338257 6.45237 0.000338257 6.57943V30.795C-0.00625731 31.0438 0.0838167 31.2854 0.251633 31.4691C0.419449 31.6528 0.651948 31.7644 0.900268 31.7803H5.44106C5.5703 31.7807 5.69835 31.7556 5.81787 31.7064C5.93738 31.6572 6.04601 31.5849 6.13753 31.4936C6.22906 31.4024 6.30167 31.294 6.35122 31.1746C6.40077 31.0552 6.42628 30.9272 6.42628 30.798L6.44392 24.0338H10.7142C11.5197 24.0729 12.3245 23.9431 13.0769 23.6526C13.8293 23.3621 14.5126 22.9175 15.0829 22.3472C15.6531 21.7769 16.0978 21.0936 16.3883 20.3412C16.6788 19.5888 16.8086 18.784 16.7695 17.9785V11.6937C16.8111 10.8863 16.6831 10.0792 16.3938 9.32425C16.1046 8.56933 15.6605 7.88335 15.09 7.31044C14.5196 6.73754 13.8356 6.29044 13.0819 5.99789C12.3283 5.70535 11.5217 5.57386 10.7142 5.61188ZM10.323 13.7788V16.5286C10.323 16.8058 10.2131 17.0716 10.0174 17.2679C9.82169 17.4641 9.55614 17.5748 9.27898 17.5756H6.4498V12.0613H9.27898C9.55587 12.0613 9.82142 12.1713 10.0172 12.3671C10.213 12.5629 10.323 12.8284 10.323 13.1053V13.7788Z" fill="#002970"/>
<path d="M28.0974 5.63826H21.9214C21.6676 5.62953 21.4207 5.72186 21.2349 5.89499C21.049 6.06813 20.9395 6.3079 20.9303 6.5617V10.7408C20.9403 11.0097 21.0563 11.2636 21.2531 11.4472C21.4499 11.6307 21.7113 11.7288 21.9802 11.7201H27.8621C28.0953 11.752 28.3103 11.8633 28.4711 12.0353C28.6318 12.2072 28.7283 12.4293 28.7444 12.6641V13.2376C28.7291 13.4671 28.6345 13.6842 28.4768 13.8516C28.319 14.019 28.108 14.1263 27.8797 14.1552H24.9653C24.1143 14.0906 23.2592 14.203 22.4538 14.4854C21.6485 14.7678 20.9104 15.2141 20.2862 15.796C19.6619 16.378 19.1651 17.083 18.827 17.8666C18.4889 18.6502 18.3168 19.4954 18.3217 20.3488V25.5278C18.2752 26.3544 18.405 27.1814 18.7024 27.954C18.9998 28.7266 19.4581 29.4272 20.0468 30.0093C20.6355 30.5913 21.3413 31.0416 22.1172 31.3302C22.8932 31.6188 23.7217 31.7391 24.5477 31.6832H32.6293C33.3022 31.7054 33.9563 31.46 34.4486 31.0008C34.9409 30.5416 35.2311 29.9061 35.2556 29.2333V12.3259C35.2644 8.22335 33.1469 5.63826 28.0974 5.63826ZM28.8061 24.2396V24.9366C28.8045 24.9921 28.7976 25.0472 28.7855 25.1013C28.775 25.1512 28.7612 25.2003 28.7444 25.2484C28.6673 25.4485 28.5306 25.6201 28.3528 25.74C28.1751 25.86 27.9648 25.9224 27.7503 25.9189H25.8976C25.6286 25.9276 25.3672 25.8295 25.1704 25.646C24.9737 25.4624 24.8576 25.2085 24.8476 24.9396V21.831V21.1164C24.8591 20.8485 24.9758 20.596 25.1724 20.4138C25.369 20.2315 25.6296 20.1341 25.8976 20.1429H27.7503C28.0196 20.1342 28.2813 20.2322 28.4785 20.4157C28.6758 20.5991 28.7925 20.8531 28.8032 21.1223L28.8061 24.2396Z" fill="#002970"/>
<path d="M131.375 10.0463V24.5918H129.18V10.0463H131.375ZM136.324 18.1145V24.5918H134.2V13.6827H136.239V15.4583H136.374C136.624 14.8806 137.017 14.4166 137.552 14.0662C138.092 13.7158 138.772 13.5407 139.591 13.5407C140.334 13.5407 140.985 13.6969 141.544 14.0094C142.103 14.3172 142.536 14.7765 142.844 15.3873C143.151 15.998 143.305 16.7533 143.305 17.6529V24.5918H141.182V17.9086C141.182 17.1178 140.976 16.4999 140.564 16.0549C140.152 15.6051 139.586 15.3801 138.866 15.3801C138.374 15.3801 137.936 15.4867 137.552 15.6998C137.174 15.9128 136.873 16.2253 136.65 16.6373C136.433 17.0444 136.324 17.5369 136.324 18.1145ZM154.895 13.6827L150.939 24.5918H148.666L144.703 13.6827H146.983L149.746 22.0776H149.86L152.615 13.6827H154.895ZM161.021 24.812C159.947 24.812 159.021 24.5823 158.244 24.123C157.473 23.659 156.876 23.008 156.455 22.1699C156.038 21.3271 155.83 20.3399 155.83 19.2083C155.83 18.0908 156.038 17.106 156.455 16.2537C156.876 15.4015 157.463 14.7362 158.216 14.258C158.974 13.7798 159.859 13.5407 160.872 13.5407C161.488 13.5407 162.084 13.6425 162.662 13.8461C163.24 14.0497 163.758 14.3693 164.217 14.8049C164.677 15.2405 165.039 15.8063 165.304 16.5023C165.569 17.1936 165.702 18.034 165.702 19.0236V19.7765H157.03V18.1855H163.621C163.621 17.6268 163.507 17.132 163.28 16.7012C163.053 16.2656 162.733 15.9223 162.321 15.6713C161.914 15.4204 161.436 15.2949 160.887 15.2949C160.29 15.2949 159.769 15.4417 159.324 15.7353C158.884 16.0241 158.543 16.4029 158.301 16.8716C158.065 17.3356 157.946 17.8399 157.946 18.3844V19.6273C157.946 20.3565 158.074 20.9767 158.33 21.4881C158.59 21.9995 158.952 22.3901 159.416 22.66C159.88 22.9251 160.422 23.0577 161.043 23.0577C161.445 23.0577 161.812 23.0009 162.144 22.8873C162.475 22.7689 162.762 22.5937 163.003 22.3617C163.244 22.1297 163.429 21.8432 163.557 21.5023L165.567 21.8645C165.406 22.4564 165.117 22.9748 164.7 23.4199C164.288 23.8603 163.77 24.2035 163.145 24.4498C162.525 24.6912 161.817 24.812 161.021 24.812ZM176.033 16.3461L174.108 16.687C174.028 16.4408 173.9 16.2064 173.725 15.9838C173.554 15.7613 173.322 15.579 173.028 15.437C172.735 15.2949 172.368 15.2239 171.928 15.2239C171.326 15.2239 170.824 15.3588 170.422 15.6287C170.019 15.8939 169.818 16.2372 169.818 16.6586C169.818 17.0231 169.953 17.3167 170.223 17.5392C170.493 17.7618 170.929 17.9441 171.53 18.0861L173.263 18.4838C174.267 18.7158 175.015 19.0733 175.507 19.5563C176 20.0392 176.246 20.6666 176.246 21.4384C176.246 22.0918 176.056 22.6742 175.678 23.1855C175.304 23.6922 174.78 24.0899 174.108 24.3787C173.44 24.6676 172.666 24.812 171.786 24.812C170.564 24.812 169.567 24.5516 168.796 24.0307C168.024 23.5051 167.55 22.7594 167.375 21.7935L169.428 21.481C169.555 22.016 169.818 22.4209 170.216 22.6955C170.614 22.9654 171.132 23.1003 171.771 23.1003C172.467 23.1003 173.024 22.9559 173.44 22.6671C173.857 22.3735 174.065 22.016 174.065 21.5946C174.065 21.2537 173.938 20.9673 173.682 20.7353C173.431 20.5033 173.045 20.3281 172.524 20.2097L170.678 19.8049C169.66 19.5729 168.907 19.2035 168.419 18.6969C167.936 18.1903 167.695 17.5487 167.695 16.7722C167.695 16.1283 167.875 15.5648 168.234 15.0819C168.594 14.5989 169.091 14.2225 169.726 13.9526C170.36 13.678 171.087 13.5407 171.906 13.5407C173.085 13.5407 174.013 13.7963 174.69 14.3077C175.367 14.8143 175.815 15.4938 176.033 16.3461ZM183.473 13.6827V15.3873H177.514V13.6827H183.473ZM179.112 11.0691H181.236V21.3887C181.236 21.8006 181.297 22.1107 181.42 22.3191C181.544 22.5227 181.702 22.6623 181.896 22.7381C182.095 22.8091 182.311 22.8446 182.543 22.8446C182.713 22.8446 182.862 22.8328 182.99 22.8091C183.118 22.7855 183.217 22.7665 183.288 22.7523L183.672 24.5066C183.549 24.5539 183.374 24.6013 183.146 24.6486C182.919 24.7007 182.635 24.7291 182.294 24.7338C181.735 24.7433 181.214 24.6439 180.732 24.4355C180.249 24.2272 179.858 23.9052 179.56 23.4696C179.261 23.034 179.112 22.4872 179.112 21.829V11.0691ZM190.1 24.812C189.077 24.812 188.185 24.5776 187.423 24.1088C186.66 23.6401 186.068 22.9843 185.647 22.1415C185.226 21.2987 185.015 20.3139 185.015 19.187C185.015 18.0553 185.226 17.0658 185.647 16.2182C186.068 15.3707 186.66 14.7125 187.423 14.2438C188.185 13.775 189.077 13.5407 190.1 13.5407C191.123 13.5407 192.015 13.775 192.778 14.2438C193.54 14.7125 194.132 15.3707 194.553 16.2182C194.975 17.0658 195.185 18.0553 195.185 19.187C195.185 20.3139 194.975 21.2987 194.553 22.1415C194.132 22.9843 193.54 23.6401 192.778 24.1088C192.015 24.5776 191.123 24.812 190.1 24.812ZM190.107 23.0293C190.77 23.0293 191.319 22.8541 191.755 22.5037C192.191 22.1533 192.512 21.687 192.721 21.1046C192.934 20.5222 193.04 19.8806 193.04 19.1799C193.04 18.4838 192.934 17.8446 192.721 17.2623C192.512 16.6751 192.191 16.204 191.755 15.8489C191.319 15.4938 190.77 15.3162 190.107 15.3162C189.44 15.3162 188.886 15.4938 188.445 15.8489C188.01 16.204 187.685 16.6751 187.472 17.2623C187.264 17.8446 187.16 18.4838 187.16 19.1799C187.16 19.8806 187.264 20.5222 187.472 21.1046C187.685 21.687 188.01 22.1533 188.445 22.5037C188.886 22.8541 189.44 23.0293 190.107 23.0293ZM197.356 24.5918V13.6827H199.408V15.4157H199.522C199.721 14.8285 200.071 14.3669 200.573 14.0307C201.08 13.6898 201.653 13.5194 202.292 13.5194C202.424 13.5194 202.581 13.5241 202.761 13.5336C202.945 13.543 203.09 13.5549 203.194 13.5691V15.6003C203.109 15.5766 202.957 15.5506 202.739 15.5222C202.521 15.4891 202.304 15.4725 202.086 15.4725C201.584 15.4725 201.136 15.579 200.743 15.7921C200.355 16.0004 200.047 16.2916 199.82 16.6657C199.593 17.035 199.479 17.4564 199.479 17.9299V24.5918H197.356ZM210.095 24.5918V10.0463H215.28C216.406 10.0463 217.342 10.2405 218.085 10.6287C218.833 11.017 219.392 11.5544 219.761 12.2409C220.13 12.9228 220.315 13.7111 220.315 14.606C220.315 15.4962 220.128 16.2798 219.754 16.9569C219.385 17.6292 218.826 18.1524 218.078 18.5265C217.334 18.9005 216.399 19.0875 215.272 19.0875H211.345V17.1983H215.074C215.784 17.1983 216.361 17.0965 216.807 16.8929C217.256 16.6893 217.585 16.3934 217.794 16.0051C218.002 15.6169 218.106 15.1505 218.106 14.606C218.106 14.0568 218 13.5809 217.787 13.1784C217.578 12.776 217.249 12.4682 216.799 12.2551C216.354 12.0373 215.77 11.9284 215.045 11.9284H212.289V24.5918H210.095ZM217.275 18.0293L220.869 24.5918H218.369L214.846 18.0293H217.275ZM227.18 24.812C226.105 24.812 225.18 24.5823 224.403 24.123C223.631 23.659 223.035 23.008 222.613 22.1699C222.197 21.3271 221.988 20.3399 221.988 19.2083C221.988 18.0908 222.197 17.106 222.613 16.2537C223.035 15.4015 223.622 14.7362 224.375 14.258C225.132 13.7798 226.018 13.5407 227.031 13.5407C227.646 13.5407 228.243 13.6425 228.821 13.8461C229.398 14.0497 229.917 14.3693 230.376 14.8049C230.835 15.2405 231.198 15.8063 231.463 16.5023C231.728 17.1936 231.86 18.034 231.86 19.0236V19.7765H223.189V18.1855H229.779C229.779 17.6268 229.666 17.132 229.439 16.7012C229.211 16.2656 228.892 15.9223 228.48 15.6713C228.073 15.4204 227.594 15.2949 227.045 15.2949C226.449 15.2949 225.928 15.4417 225.483 15.7353C225.042 16.0241 224.701 16.4029 224.46 16.8716C224.223 17.3356 224.105 17.8399 224.105 18.3844V19.6273C224.105 20.3565 224.233 20.9767 224.488 21.4881C224.749 21.9995 225.111 22.3901 225.575 22.66C226.039 22.9251 226.581 23.0577 227.201 23.0577C227.604 23.0577 227.971 23.0009 228.302 22.8873C228.634 22.7689 228.92 22.5937 229.162 22.3617C229.403 22.1297 229.588 21.8432 229.716 21.5023L231.725 21.8645C231.565 22.4564 231.276 22.9748 230.859 23.4199C230.447 23.8603 229.929 24.2035 229.304 24.4498C228.683 24.6912 227.975 24.812 227.18 24.812ZM236.14 10.0463V24.5918H234.017V10.0463H236.14ZM241.972 24.8333C241.281 24.8333 240.656 24.7054 240.097 24.4498C239.538 24.1893 239.095 23.8129 238.769 23.3205C238.447 22.8281 238.286 22.2244 238.286 21.5094C238.286 20.8939 238.404 20.3873 238.641 19.9895C238.878 19.5918 239.197 19.2769 239.6 19.0449C240.002 18.8129 240.452 18.6377 240.949 18.5194C241.446 18.401 241.953 18.311 242.469 18.2495C243.122 18.1737 243.653 18.1122 244.06 18.0648C244.467 18.0127 244.763 17.9299 244.948 17.8162C245.132 17.7026 245.225 17.5179 245.225 17.2623V17.2125C245.225 16.5923 245.049 16.1117 244.699 15.7708C244.353 15.4299 243.837 15.2594 243.151 15.2594C242.436 15.2594 241.872 15.418 241.46 15.7353C241.053 16.0478 240.772 16.3958 240.615 16.7793L238.62 16.3248C238.856 15.6619 239.202 15.1268 239.656 14.7196C240.116 14.3077 240.644 14.0094 241.24 13.8248C241.837 13.6354 242.464 13.5407 243.122 13.5407C243.558 13.5407 244.02 13.5927 244.507 13.6969C245 13.7963 245.459 13.981 245.885 14.2509C246.316 14.5208 246.669 14.9067 246.943 15.4086C247.218 15.9057 247.355 16.552 247.355 17.3475V24.5918H245.281V23.1003H245.196C245.059 23.3749 244.853 23.6448 244.578 23.91C244.304 24.1751 243.951 24.3953 243.52 24.5705C243.089 24.7457 242.573 24.8333 241.972 24.8333ZM242.433 23.1287C243.021 23.1287 243.522 23.0127 243.939 22.7807C244.361 22.5487 244.68 22.2457 244.898 21.8716C245.12 21.4928 245.232 21.088 245.232 20.6571V19.2509C245.156 19.3266 245.009 19.3977 244.791 19.464C244.578 19.5255 244.334 19.58 244.06 19.6273C243.785 19.6699 243.518 19.7102 243.257 19.748C242.997 19.7812 242.779 19.8096 242.604 19.8333C242.192 19.8854 241.816 19.973 241.475 20.0961C241.138 20.2192 240.869 20.3967 240.665 20.6287C240.466 20.856 240.367 21.159 240.367 21.5378C240.367 22.0634 240.561 22.4611 240.949 22.731C241.337 22.9962 241.832 23.1287 242.433 23.1287ZM255.076 13.6827V15.3873H249.117V13.6827H255.076ZM250.715 11.0691H252.839V21.3887C252.839 21.8006 252.9 22.1107 253.024 22.3191C253.147 22.5227 253.305 22.6623 253.499 22.7381C253.698 22.8091 253.914 22.8446 254.146 22.8446C254.316 22.8446 254.465 22.8328 254.593 22.8091C254.721 22.7855 254.82 22.7665 254.891 22.7523L255.275 24.5066C255.152 24.5539 254.977 24.6013 254.749 24.6486C254.522 24.7007 254.238 24.7291 253.897 24.7338C253.338 24.7433 252.818 24.6439 252.335 24.4355C251.852 24.2272 251.461 23.9052 251.163 23.4696C250.864 23.034 250.715 22.4872 250.715 21.829V11.0691ZM257.225 24.5918V13.6827H259.349V24.5918H257.225ZM258.298 11.9995C257.928 11.9995 257.611 11.8764 257.346 11.6301C257.086 11.3792 256.955 11.0809 256.955 10.7353C256.955 10.3849 257.086 10.0866 257.346 9.84038C257.611 9.58943 257.928 9.46396 258.298 9.46396C258.667 9.46396 258.982 9.58943 259.242 9.84038C259.507 10.0866 259.64 10.3849 259.64 10.7353C259.64 11.0809 259.507 11.3792 259.242 11.6301C258.982 11.8764 258.667 11.9995 258.298 11.9995ZM266.601 24.812C265.578 24.812 264.686 24.5776 263.923 24.1088C263.161 23.6401 262.569 22.9843 262.148 22.1415C261.726 21.2987 261.516 20.3139 261.516 19.187C261.516 18.0553 261.726 17.0658 262.148 16.2182C262.569 15.3707 263.161 14.7125 263.923 14.2438C264.686 13.775 265.578 13.5407 266.601 13.5407C267.624 13.5407 268.516 13.775 269.278 14.2438C270.041 14.7125 270.633 15.3707 271.054 16.2182C271.475 17.0658 271.686 18.0553 271.686 19.187C271.686 20.3139 271.475 21.2987 271.054 22.1415C270.633 22.9843 270.041 23.6401 269.278 24.1088C268.516 24.5776 267.624 24.812 266.601 24.812ZM266.608 23.0293C267.271 23.0293 267.82 22.8541 268.256 22.5037C268.691 22.1533 269.013 21.687 269.222 21.1046C269.435 20.5222 269.541 19.8806 269.541 19.1799C269.541 18.4838 269.435 17.8446 269.222 17.2623C269.013 16.6751 268.691 16.204 268.256 15.8489C267.82 15.4938 267.271 15.3162 266.608 15.3162C265.94 15.3162 265.386 15.4938 264.946 15.8489C264.51 16.204 264.186 16.6751 263.973 17.2623C263.765 17.8446 263.661 18.4838 263.661 19.1799C263.661 19.8806 263.765 20.5222 263.973 21.1046C264.186 21.687 264.51 22.1533 264.946 22.5037C265.386 22.8541 265.94 23.0293 266.608 23.0293ZM275.98 18.1145V24.5918H273.856V13.6827H275.895V15.4583H276.03C276.281 14.8806 276.674 14.4166 277.209 14.0662C277.749 13.7158 278.428 13.5407 279.247 13.5407C279.99 13.5407 280.642 13.6969 281.2 14.0094C281.759 14.3172 282.192 14.7765 282.5 15.3873C282.808 15.998 282.962 16.7533 282.962 17.6529V24.5918H280.838V17.9086C280.838 17.1178 280.632 16.4999 280.22 16.0549C279.808 15.6051 279.242 15.3801 278.523 15.3801C278.03 15.3801 277.592 15.4867 277.209 15.6998C276.83 15.9128 276.529 16.2253 276.307 16.6373C276.089 17.0444 275.98 17.5369 275.98 18.1145ZM293.784 16.3461L291.86 16.687C291.779 16.4408 291.651 16.2064 291.476 15.9838C291.306 15.7613 291.074 15.579 290.78 15.437C290.486 15.2949 290.12 15.2239 289.679 15.2239C289.078 15.2239 288.576 15.3588 288.174 15.6287C287.771 15.8939 287.57 16.2372 287.57 16.6586C287.57 17.0231 287.705 17.3167 287.975 17.5392C288.245 17.7618 288.68 17.9441 289.281 18.0861L291.014 18.4838C292.018 18.7158 292.766 19.0733 293.259 19.5563C293.751 20.0392 293.997 20.6666 293.997 21.4384C293.997 22.0918 293.808 22.6742 293.429 23.1855C293.055 23.6922 292.532 24.0899 291.86 24.3787C291.192 24.6676 290.418 24.812 289.537 24.812C288.316 24.812 287.319 24.5516 286.547 24.0307C285.775 23.5051 285.302 22.7594 285.127 21.7935L287.179 21.481C287.307 22.016 287.57 22.4209 287.968 22.6955C288.365 22.9654 288.884 23.1003 289.523 23.1003C290.219 23.1003 290.775 22.9559 291.192 22.6671C291.609 22.3735 291.817 22.016 291.817 21.5946C291.817 21.2537 291.689 20.9673 291.433 20.7353C291.183 20.5033 290.797 20.3281 290.276 20.2097L288.429 19.8049C287.411 19.5729 286.658 19.2035 286.171 18.6969C285.688 18.1903 285.446 17.5487 285.446 16.7722C285.446 16.1283 285.626 15.5648 285.986 15.0819C286.346 14.5989 286.843 14.2225 287.477 13.9526C288.112 13.678 288.839 13.5407 289.658 13.5407C290.837 13.5407 291.765 13.7963 292.442 14.3077C293.119 14.8143 293.567 15.4938 293.784 16.3461Z" fill="#707070"/>
<line x1="114.25" y1="5.35352" x2="114.25" y2="31.4124" stroke="black" stroke-width="0.5"/>
</svg>
