<svg width="284" height="175" viewBox="0 0 284 175" fill="none" xmlns="http://www.w3.org/2000/svg">
<path opacity="0.07" d="M9.40777 174.942C3.13932 159.589 -6.26209e-06 143.26 -5.50578e-06 125.958C-4.51376e-06 103.263 5.39342 82.2494 16.1804 62.902C26.9673 43.5546 41.4312 27.3641 59.9385 16.0705C78.4458 4.76914 98.7159 -7.06532e-06 120.39 -6.11791e-06L283.5 0L283.5 10.7946L120.39 10.7946C105.643 10.7946 91.7259 13.4492 78.1806 19.5452C64.6353 25.6411 52.7481 34.2341 42.9628 44.5297C33.1775 54.8253 25.3801 67.0939 19.5629 81.3434C13.7456 95.5853 10.8331 110.457 10.8331 125.958C10.8331 142.859 14.5044 159.545 21.4383 174.942L9.40777 174.942ZM33.3169 174.942C25.7291 159.746 21.6663 142.972 21.6663 125.965C21.6663 111.877 24.2707 98.3722 29.4946 85.4816C34.7109 72.5834 41.7301 61.4893 50.5599 52.1919C59.3898 42.8944 69.9004 35.0781 82.0896 29.5349C94.2788 23.9917 107.045 21.6046 120.39 21.6046L283.5 21.6046L283.5 32.3992L120.39 32.3992C104.533 32.3992 89.9346 36.1305 76.4432 44.5297C62.9519 52.9289 52.1934 64.7677 44.3189 79.1093C36.4444 93.4509 32.5072 109.075 32.5072 125.973C32.5072 143.157 36.8747 160.066 45.5077 174.942L33.3169 174.942ZM58.3294 174.942C48.5666 160.576 43.3403 143.314 43.3403 125.958C43.3403 114.764 45.3745 104.061 49.435 93.8655C53.4955 83.6697 58.9892 74.8713 65.916 67.4701C72.835 60.069 81.0407 54.1727 90.5178 49.7734C99.9949 45.3742 109.957 43.1784 120.39 43.1784L283.5 43.1784L283.5 53.9731L120.39 53.973C108.447 53.973 97.0533 56.964 86.8673 63.4131C76.6814 69.8623 68.967 78.8406 63.0496 89.8885C57.1322 100.937 54.1735 112.952 54.1735 125.95C54.1735 143.737 60.2504 161.375 71.8296 174.942L58.3294 174.942ZM87.2047 174.942C72.8581 162.735 65.0145 144.764 65.0145 125.965C65.0145 109.175 70.3878 94.0896 81.2209 82.0896C92.0541 70.0896 105.142 64.783 120.39 64.783L283.5 64.783L283.5 75.5776L120.39 75.5776C108.147 75.5776 97.7687 79.1887 89.039 89.039C80.3093 98.8816 75.8476 112.069 75.8476 125.965C75.8476 147.014 88.1206 159.77 100.402 174.942L87.2047 174.942Z" fill="url(#paint0_linear_7386_272)"/>
<defs>
<linearGradient id="paint0_linear_7386_272" x1="435.192" y1="-41.6922" x2="480.988" y2="101.621" gradientUnits="userSpaceOnUse">
<stop stop-color="#21C7E1"/>
<stop offset="0.39621" stop-color="#2585FF"/>
<stop offset="1" stop-color="#002970" stop-opacity="0"/>
</linearGradient>
</defs>
</svg>
