<svg width="203" height="252" viewBox="0 0 203 252" fill="none" xmlns="http://www.w3.org/2000/svg">
<path opacity="0.07" d="M82.11 241.121L0.0173455 241.121L0.0173459 251.915L82.11 251.915C103.776 251.915 123.871 246.265 142.378 234.971C160.885 223.67 175.54 208.353 186.32 189.013C197.099 169.673 202.5 148.652 202.5 125.958C202.5 103.263 197.106 82.2494 186.32 62.902C175.533 43.5546 161.069 27.3641 142.561 16.0705C124.054 4.76914 103.784 -4.53579e-06 82.11 -3.58839e-06L-9.44365e-07 0L-4.72518e-07 10.7946L82.11 10.7946C96.8573 10.7946 110.774 13.4492 124.319 19.5452C137.865 25.6411 149.752 34.2341 159.537 44.5297C169.322 54.8253 177.12 67.0939 182.937 81.3434C188.754 95.5853 191.667 110.457 191.667 125.958C191.667 141.459 188.754 156.322 182.937 170.572C177.12 184.814 169.315 197.09 159.537 207.386C149.752 217.681 138.094 225.881 124.549 231.977C111.004 238.073 96.8573 241.121 82.11 241.121ZM82.11 219.531L0.0173445 219.531L0.017345 230.326L82.11 230.326C95.455 230.326 108.222 227.554 120.411 222.004C132.601 216.453 143.11 209.036 151.94 199.739C160.77 190.441 167.797 179.347 173.005 166.449C178.222 153.551 180.834 140.054 180.834 125.965C180.834 111.877 178.229 98.3722 173.005 85.4816C167.789 72.5834 160.77 61.4893 151.94 52.1919C143.11 42.8944 132.6 35.0781 120.41 29.5349C108.221 23.9917 95.455 21.6046 82.11 21.6046L0 21.6046L4.71848e-07 32.3992L82.11 32.3992C97.9668 32.3992 112.565 36.1305 126.057 44.5297C139.548 52.9289 150.307 64.7677 158.181 79.1093C166.055 93.4509 169.993 109.075 169.993 125.973C169.993 142.871 166.055 158.487 158.181 172.837C150.307 187.178 139.62 198.556 126.128 206.948C112.637 215.347 97.9668 219.547 82.11 219.547L82.11 219.531ZM82.11 197.942L0.0173436 197.942L0.0173441 208.737L82.11 208.737C92.5425 208.737 102.497 206.533 111.982 202.142C121.459 197.743 129.665 191.846 136.584 184.445C143.503 177.044 148.997 168.253 153.065 158.05C157.133 147.846 159.16 137.151 159.16 125.958C159.16 114.764 157.125 104.061 153.065 93.8655C149.004 83.6697 143.511 74.8713 136.584 67.4701C129.665 60.069 121.459 54.1727 111.982 49.7734C102.505 45.3742 92.5425 43.1784 82.11 43.1784L9.43025e-07 43.1784L1.41487e-06 53.9731L82.11 53.9731C94.0527 53.9731 105.447 56.964 115.633 63.4132C125.819 69.8623 133.533 78.8406 139.45 89.8886C145.368 100.937 148.326 112.952 148.326 125.95C148.326 138.948 145.368 150.963 139.45 162.011C133.533 173.059 125.481 181.804 115.295 188.253C105.117 194.702 94.0527 197.927 82.11 197.927L82.11 197.942ZM82.11 176.353L0.0173426 176.353L0.0173431 187.148L82.11 187.148C97.3581 187.148 110.403 181.151 121.236 169.151C132.069 157.151 137.485 142.756 137.485 125.965C137.485 109.175 132.112 94.0896 121.279 82.0896C110.446 70.0896 97.3581 64.783 82.11 64.783L1.88739e-06 64.783L2.35924e-06 75.5776L82.11 75.5776C94.3532 75.5776 104.731 79.1887 113.461 89.039C122.191 98.8816 126.652 112.069 126.652 125.965C126.652 139.862 122.191 151.723 113.461 161.573C104.731 171.416 94.3532 176.353 82.11 176.353Z" fill="url(#paint0_linear_7386_271)"/>
<defs>
<linearGradient id="paint0_linear_7386_271" x1="-232.691" y1="-41.6916" x2="-278.486" y2="101.622" gradientUnits="userSpaceOnUse">
<stop stop-color="#21C7E1"/>
<stop offset="0.39621" stop-color="#2585FF"/>
<stop offset="1" stop-color="#002970" stop-opacity="0.5"/>
</linearGradient>
</defs>
</svg>
